<svg width="43" height="50" viewBox="0 0 43 50" fill="none" xmlns="http://www.w3.org/2000/svg">
<path d="M0 33.7297V33.2186L1.09217 32.8098C1.82028 32.5372 2.27102 32.2135 2.44438 31.8388C2.65241 31.4299 2.75642 30.8848 2.75642 30.2034V3.52628C2.75642 2.84488 2.65241 2.29975 2.44438 1.89091C2.23634 1.48206 1.78561 1.15839 1.09217 0.9199L0 0.511055V0H13.262V0.511055L12.3259 0.9199C11.6671 1.15839 11.2164 1.49909 10.9737 1.94201C10.731 2.35086 10.6096 2.89598 10.6096 3.57739V32.7076H24.2922C25.5751 32.7076 26.5112 32.4009 27.1006 31.7876C27.7247 31.1744 28.3142 30.2886 28.8689 29.1302L30.8972 24.8373H31.4173L30.9492 33.7297H0Z" fill="#FFCB74"/>
<path d="M32.0263 50C28.6631 50 25.612 49.3356 22.8729 48.0069C20.1685 46.6441 18.0188 44.6339 16.4239 41.9764C14.829 39.3189 14.0316 36.0652 14.0316 32.2153C14.0316 29.2852 14.517 26.7129 15.4878 24.4983C16.4586 22.2838 17.7761 20.4269 19.4404 18.9278C21.1393 17.4287 23.0809 16.3044 25.2653 15.5549C27.4843 14.8053 29.8246 14.4305 32.2864 14.4305C34.2627 14.4305 36.0829 14.652 37.7472 15.0949C39.4115 15.5378 40.9717 16.1511 42.4279 16.9347L42.6359 23.2207H42.1159L39.5155 19.1322C39.1688 18.4849 38.7874 17.9057 38.3713 17.3947C37.9552 16.8495 37.4352 16.4407 36.8111 16.1681C36.291 15.9296 35.7709 15.7593 35.2508 15.6571C34.7654 15.5208 34.1413 15.4526 33.3785 15.4526C31.3675 15.4526 29.5299 15.9807 27.8657 17.0369C26.2361 18.0931 24.9186 19.8477 23.9131 22.3008C22.9423 24.7198 22.4568 28.0416 22.4568 32.2664C22.4568 36.457 22.9249 39.7789 23.8611 42.232C24.7972 44.651 26.0627 46.3885 27.6576 47.4447C29.2872 48.4668 31.1075 48.9779 33.1185 48.9779C34.228 48.9779 35.1121 48.9097 35.7709 48.7735C36.4297 48.6031 37.0884 48.3646 37.7472 48.058C38.406 47.7854 38.9087 47.3936 39.2554 46.8826C39.6021 46.3374 39.9142 45.7582 40.1916 45.145L42.4799 40.1366H43L42.844 47.4447C41.3878 48.1943 39.7582 48.8075 37.9552 49.2845C36.1523 49.7615 34.176 50 32.0263 50Z" fill="#FFCB74"/>
</svg>
