<svg width="49" height="24" viewBox="0 0 49 24" fill="none" xmlns="http://www.w3.org/2000/svg">
<path d="M0.666687 5C0.666687 2.79086 2.45755 1 4.66669 1H44.3334C46.5425 1 48.3334 2.79086 48.3334 5V19C48.3334 21.2091 46.5425 23 44.3334 23H4.66669C2.45755 23 0.666687 21.2091 0.666687 19V5Z" fill="#FFCB74"/>
<path d="M4.33335 6.5H15.3334V17.5H4.33335V6.5Z" fill="#FFCB74"/>
<path d="M19 6.5H30V17.5H19V6.5Z" fill="#FFCB74"/>
<path d="M33.6667 6.5H44.6667V17.5H33.6667V6.5Z" fill="#FFCB74"/>
<path d="M0.666687 5C0.666687 2.79086 2.45755 1 4.66669 1H44.3334C46.5425 1 48.3334 2.79086 48.3334 5V19C48.3334 21.2091 46.5425 23 44.3334 23H4.66669C2.45755 23 0.666687 21.2091 0.666687 19V5Z" fill="#FFCB74"/>
<path d="M4.33335 6.5H15.3334V17.5H4.33335V6.5Z" fill="#FFCB74"/>
<path d="M19 6.5H30V17.5H19V6.5Z" fill="#FFCB74"/>
<path d="M33.6667 6.5H44.6667V17.5H33.6667V6.5Z" fill="#FFCB74"/>
<path d="M4.66669 23H44.3334C46.5425 23 48.3334 21.2091 48.3334 19V5C48.3334 2.79086 46.5425 1 44.3334 1H4.66669C2.45755 1 0.666687 2.79086 0.666687 5V19C0.666687 21.2091 2.45755 23 4.66669 23ZM4.33335 6.5H15.3334V17.5H4.33335V6.5ZM19 6.5H30V17.5H19V6.5ZM33.6667 6.5H44.6667V17.5H33.6667V6.5Z" stroke="#2F2F2F"/>
</svg>
