<svg width="50" height="24" viewBox="0 0 50 24" fill="none" xmlns="http://www.w3.org/2000/svg">
<path d="M1 5C1 2.79086 2.79086 1 5 1H44.6667C46.8758 1 48.6667 2.79086 48.6667 5V19C48.6667 21.2091 46.8758 23 44.6667 23H5C2.79086 23 1 21.2091 1 19V5Z" fill="#FFCB74"/>
<path d="M1 5C1 2.79086 2.79086 1 5 1H44.6667C46.8758 1 48.6667 2.79086 48.6667 5V19C48.6667 21.2091 46.8758 23 44.6667 23H5C2.79086 23 1 21.2091 1 19V5Z" fill="#FFCB74"/>
<path d="M10.1667 6.5H39.5M10.1667 12H39.5M10.1667 17.5H39.5M5 23H44.6667C46.8758 23 48.6667 21.2091 48.6667 19V5C48.6667 2.79086 46.8758 1 44.6667 1H5C2.79086 1 1 2.79086 1 5V19C1 21.2091 2.79086 23 5 23Z" stroke="#2F2F2F" stroke-linecap="round"/>
</svg>
