<svg width="16" height="16" viewBox="0 0 16 16" fill="none" xmlns="http://www.w3.org/2000/svg">
<path d="M7.50005 12.2C5.20005 12.2 3.30005 10.3 3.30005 8.00005C3.30005 5.70005 5.20005 3.80005 7.50005 3.80005C9.80005 3.80005 11.7 5.70005 11.7 8.00005C11.8 10.3 9.80005 12.2 7.50005 12.2V12.2ZM7.50005 5.20005C6.00005 5.20005 4.80005 6.50005 4.80005 8.00005C4.80005 9.50005 6.00005 10.8 7.60005 10.8C9.20005 10.8 10.4 9.60005 10.4 8.00005C10.4 6.40005 9.00005 5.20005 7.50005 5.20005V5.20005Z" fill="#FFCB74"/>
<path d="M8 16C3.6 16 0 12.4 0 8C0 3.6 3.6 0 8 0C12.4 0 16 3.6 16 8C16 9.5 15.6 11 14.8 12.2C14.5 12.7 13.7 13.4 12.5 13.4C11.7 13.4 11.2 13.1 10.9 12.8C10.2 12.1 10.3 11 10.3 10.9V4H11.8V11C11.8 11.2 11.8 11.6 12 11.8C12 11.8 12.2 12 12.5 12C13.2 12 13.6 11.5 13.6 11.5C14.2 10.5 14.6 9.3 14.6 8.1C14.6 4.5 11.7 1.6 8.1 1.6C4.5 1.6 1.5 4.4 1.5 8C1.5 11.6 4.4 14.5 8 14.5C8.7 14.5 9.3 14.4 9.9 14.2L10.3 15.6C9.6 15.9 8.8 16 8 16V16Z" fill="#FFCB74"/>
</svg>
