<svg width="11" height="16" viewBox="0 0 11 16" fill="none" xmlns="http://www.w3.org/2000/svg">
<path d="M9.9 7.46667V4.16C9.9 1.81333 8.14 0 5.72 0H5.39C3.08 0 1.1 1.81333 1.1 4.16V7.46667H0L0.11 12.8C0.11 12.8 0 16 5.5 16C11 16 11 12.8 11 12.8V7.46667H9.9ZM6.6 13.8667H5.5V11.7333C4.84 11.7333 4.4 11.3067 4.4 10.6667C4.4 10.0267 4.84 9.6 5.5 9.6C6.16 9.6 6.6 10.0267 6.6 10.6667V13.8667ZM7.7 7.46667H3.3V4.16C3.3 2.98667 4.29 2.13333 5.39 2.13333H5.72C6.82 2.13333 7.7 2.98667 7.7 4.16V7.46667V7.46667Z" fill="#FFCB74"/>
</svg>
