<svg width="16" height="16" viewBox="0 0 16 16" fill="none" xmlns="http://www.w3.org/2000/svg">
<path d="M12.2175 9.98885C11.1161 9.8887 10.5154 11.391 9.71432 11.7916C8.41265 12.4926 6.00957 9.98885 6.00957 9.98885C6.00957 9.98885 3.50635 7.58521 4.10712 6.28324C4.60776 5.48202 6.10969 4.88111 6.00957 3.77945C5.90944 2.77793 3.70661 -0.827532 2.60519 0.173985C0.202104 2.37732 0.0018466 3.27869 0.0018466 5.08142C-0.098282 8.18612 3.90686 12.092 3.90686 12.092C4.30738 12.4926 7.81188 16.0981 10.9159 15.998C12.7182 15.998 13.6193 15.7976 15.8222 13.394C16.8235 12.2923 13.319 10.089 12.2175 9.98885V9.98885Z" fill="#FFCB74"/>
</svg>
