<svg width="17" height="11" viewBox="0 0 17 11" fill="none" xmlns="http://www.w3.org/2000/svg">
<path fill-rule="evenodd" clip-rule="evenodd" d="M2.39636 0.202393C1.29179 0.202393 0.396362 1.09782 0.396362 2.20239V3.37064C0.56253 3.31407 0.738528 3.28369 0.920715 3.28369C1.93626 3.28369 2.75952 4.22746 2.75952 5.39166C2.75952 6.55586 1.93626 7.49963 0.920715 7.49963C0.738528 7.49963 0.56253 7.46926 0.396362 7.41269V8.58081C0.396362 9.68538 1.29179 10.5808 2.39636 10.5808H14.3964C15.5009 10.5808 16.3964 9.68538 16.3964 8.58081V7.39248C16.2139 7.462 16.0188 7.49963 15.816 7.49963C14.8004 7.49963 13.9772 6.55586 13.9772 5.39166C13.9772 4.22746 14.8004 3.28369 15.816 3.28369C16.0188 3.28369 16.2139 3.32133 16.3964 3.39084V2.20239C16.3964 1.09782 15.5009 0.202393 14.3964 0.202393H2.39636Z" fill="#FFCB74"/>
<path d="M16.1801 3.5357C16.2995 3.5357 16.3964 3.43892 16.3964 3.31949V1.25286C16.3964 0.673611 15.9251 0.202393 15.3458 0.202393H1.44677C0.867519 0.202393 0.396362 0.673611 0.396362 1.25286V3.31952C0.396362 3.43895 0.493206 3.53574 0.612581 3.53574C1.63596 3.53574 2.46842 4.3683 2.46842 5.39158C2.46842 6.41486 1.63592 7.24742 0.612581 7.24742C0.493206 7.24742 0.396362 7.3442 0.396362 7.46364V9.53036C0.396362 10.1096 0.867519 10.5808 1.44677 10.5808H15.3458C15.9251 10.5808 16.3964 10.1096 16.3964 9.53036V7.46364C16.3964 7.3442 16.2995 7.24742 16.1801 7.24742C15.1568 7.24742 14.3243 6.41486 14.3243 5.39158C14.3243 4.3683 15.1568 3.5357 16.1801 3.5357ZM13.8919 5.39158C13.8919 6.58042 14.8032 7.56042 15.9639 7.66974V9.53039C15.9639 9.87117 15.6866 10.1484 15.3458 10.1484H5.84314V9.13974C5.84314 9.0203 5.7463 8.92352 5.62692 8.92352C5.50755 8.92352 5.41071 9.0203 5.41071 9.13974V10.1484H1.44677C1.10599 10.1484 0.8288 9.87114 0.8288 9.53036V7.66974C1.98955 7.56042 2.90086 6.58042 2.90086 5.39158C2.90086 4.20274 1.98955 3.22274 0.8288 3.11342V1.25286C0.8288 0.91208 1.10596 0.63483 1.44677 0.63483H5.41074V1.64342C5.41074 1.76286 5.50758 1.85964 5.62696 1.85964C5.74633 1.85964 5.84317 1.76286 5.84317 1.64342V0.63483H15.3459C15.6866 0.63483 15.964 0.91208 15.964 1.25286V3.11342C14.8032 3.22274 13.8919 4.20274 13.8919 5.39158ZM5.84314 4.73286V6.0503C5.84314 6.16974 5.7463 6.26652 5.62692 6.26652C5.50755 6.26652 5.41071 6.16974 5.41071 6.0503V4.73286C5.41071 4.61342 5.50755 4.51664 5.62692 4.51664C5.7463 4.51664 5.84314 4.61342 5.84314 4.73286ZM5.84314 6.93627V8.25383C5.84314 8.37327 5.7463 8.47005 5.62692 8.47005C5.50755 8.47005 5.41071 8.37327 5.41071 8.25383V6.93627C5.41071 6.81683 5.50755 6.72005 5.62692 6.72005C5.7463 6.72005 5.84314 6.81683 5.84314 6.93627ZM5.84314 2.52939V3.84689C5.84314 3.96633 5.7463 4.06311 5.62692 4.06311C5.50755 4.06311 5.41071 3.96633 5.41071 3.84689V2.52939C5.41071 2.40995 5.50755 2.31317 5.62692 2.31317C5.7463 2.31317 5.84314 2.40995 5.84314 2.52939ZM12.2393 2.71589C12.2393 2.83533 12.1424 2.93211 12.023 2.93211H8.20324C8.08386 2.93211 7.98702 2.83533 7.98702 2.71589C7.98702 2.59646 8.08386 2.49967 8.20324 2.49967H12.023C12.1424 2.49967 12.2393 2.59646 12.2393 2.71589ZM12.2393 4.49967C12.2393 4.61911 12.1424 4.71589 12.023 4.71589H8.20324C8.08386 4.71589 7.98702 4.61911 7.98702 4.49967C7.98702 4.38024 8.08386 4.28345 8.20324 4.28345H12.023C12.1424 4.28345 12.2393 4.38024 12.2393 4.49967ZM12.2393 6.28345C12.2393 6.40289 12.1424 6.49967 12.023 6.49967H8.20324C8.08386 6.49967 7.98702 6.40289 7.98702 6.28345C7.98702 6.16402 8.08386 6.06724 8.20324 6.06724H12.023C12.1424 6.06724 12.2393 6.16402 12.2393 6.28345ZM12.2393 8.06724C12.2393 8.18667 12.1424 8.28345 12.023 8.28345H8.20324C8.08386 8.28345 7.98702 8.18667 7.98702 8.06724C7.98702 7.9478 8.08386 7.85102 8.20324 7.85102H12.023C12.1424 7.85105 12.2393 7.9478 12.2393 8.06724Z" fill="#2F2F2F"/>
</svg>
